%FSLAX44Y44*%
%MOMM*%
G71*
G01*
G75*
G04 Layer_Physical_Order=2*
G04 Layer_Color=16711680*
%ADD10R,1.1000X1.4000*%
%ADD11R,1.3000X1.4000*%
%ADD12R,1.4000X5.2000*%
%ADD13R,1.7000X2.0000*%
%ADD14R,1.4000X1.0000*%
%ADD15C,0.5000*%
%ADD16C,0.2000*%
%ADD17C,2.0000*%
%ADD18C,0.6500*%
%ADD19C,0.6500*%
%ADD20C,0.3000*%
%ADD21C,3.7000*%
%ADD22C,1.5000*%
%ADD23R,1.5000X1.5000*%
%ADD24P,1.8401X8X22.5*%
%ADD25C,1.7000*%
%ADD26C,3.0000*%
%ADD27C,4.0000*%
%ADD28C,2.5400*%
%ADD29C,1.5748*%
%ADD30P,1.7046X8X112.5*%
%ADD31O,1.5240X2.5400*%
%ADD32C,1.3508*%
%ADD33R,1.3508X1.3508*%
%ADD34C,1.0000*%
%ADD35C,1.6000*%
%ADD36C,0.8000*%
%ADD37C,1.2700*%
%ADD38R,1.6000X1.6000*%
%ADD39C,0.4000*%
%ADD40C,0.7000*%
G36*
X743893Y491258D02*
X742001Y489044D01*
X739331Y484686D01*
X737375Y479964D01*
X736182Y474995D01*
X735781Y469900D01*
X736182Y464805D01*
X737375Y459836D01*
X739331Y455114D01*
X742001Y450756D01*
X745320Y446870D01*
X749206Y443551D01*
X753564Y440881D01*
X758286Y438925D01*
X763255Y437732D01*
X768350Y437331D01*
X773445Y437732D01*
X778414Y438925D01*
X783136Y440881D01*
X787494Y443551D01*
X791380Y446870D01*
X794699Y450756D01*
X795819Y452584D01*
X797041Y452239D01*
Y309880D01*
X797274Y308710D01*
X797937Y307717D01*
X798930Y307054D01*
X800100Y306821D01*
X992412D01*
Y54692D01*
X991220Y54252D01*
X990770Y54780D01*
X986884Y58099D01*
X982526Y60769D01*
X977804Y62725D01*
X972835Y63918D01*
X967740Y64319D01*
X962645Y63918D01*
X957676Y62725D01*
X952954Y60769D01*
X948596Y58099D01*
X944710Y54780D01*
X941391Y50894D01*
X938721Y46536D01*
X936765Y41814D01*
X935572Y36845D01*
X935171Y31750D01*
X935572Y26655D01*
X936765Y21686D01*
X938721Y16964D01*
X941391Y12606D01*
X944692Y8742D01*
X944160Y7588D01*
X874303D01*
X874055Y8834D01*
X875935Y9613D01*
X877888Y11112D01*
X879387Y13065D01*
X880329Y15339D01*
X880651Y17780D01*
X880329Y20221D01*
X880066Y20858D01*
X890118Y30910D01*
X901270D01*
Y52910D01*
X879270D01*
Y31598D01*
X874298Y26625D01*
X873661Y26889D01*
X871220Y27211D01*
X868779Y26889D01*
X866505Y25947D01*
X864551Y24448D01*
X863053Y22495D01*
X862111Y20221D01*
X861789Y17780D01*
X862111Y15339D01*
X863053Y13065D01*
X864551Y11112D01*
X866505Y9613D01*
X868385Y8834D01*
X868137Y7588D01*
X55330D01*
X54798Y8742D01*
X58099Y12606D01*
X60769Y16964D01*
X62725Y21686D01*
X63918Y26655D01*
X64319Y31750D01*
X63918Y36845D01*
X62725Y41814D01*
X60769Y46536D01*
X58099Y50894D01*
X54780Y54780D01*
X50894Y58099D01*
X46536Y60769D01*
X41814Y62725D01*
X36845Y63918D01*
X31750Y64319D01*
X26655Y63918D01*
X21686Y62725D01*
X16964Y60769D01*
X12606Y58099D01*
X8742Y54798D01*
X7588Y55330D01*
Y206765D01*
X8780Y207204D01*
X11260Y204300D01*
X15146Y200981D01*
X19504Y198311D01*
X24226Y196355D01*
X29195Y195162D01*
X34290Y194761D01*
X39385Y195162D01*
X44354Y196355D01*
X49076Y198311D01*
X53434Y200981D01*
X57320Y204300D01*
X60639Y208186D01*
X63309Y212544D01*
X65265Y217266D01*
X66458Y222235D01*
X66859Y227330D01*
X66458Y232425D01*
X65265Y237394D01*
X63309Y242116D01*
X60639Y246474D01*
X57320Y250360D01*
X53434Y253679D01*
X49076Y256349D01*
X44354Y258305D01*
X39385Y259498D01*
X34290Y259899D01*
X29195Y259498D01*
X24226Y258305D01*
X19504Y256349D01*
X15146Y253679D01*
X11260Y250360D01*
X8780Y247456D01*
X7588Y247895D01*
Y446320D01*
X8742Y446852D01*
X12606Y443551D01*
X16964Y440881D01*
X21686Y438925D01*
X26655Y437732D01*
X31750Y437331D01*
X36845Y437732D01*
X41814Y438925D01*
X46536Y440881D01*
X50894Y443551D01*
X54780Y446870D01*
X58099Y450756D01*
X60769Y455114D01*
X62725Y459836D01*
X63918Y464805D01*
X64319Y469900D01*
X63918Y474995D01*
X62725Y479964D01*
X60769Y484686D01*
X58099Y489044D01*
X56207Y491258D01*
X56739Y492412D01*
X743361D01*
X743893Y491258D01*
D02*
G37*
%LPC*%
G36*
X666750Y124637D02*
Y115570D01*
X675817D01*
X675626Y117019D01*
X674577Y119552D01*
X672907Y121727D01*
X670732Y123397D01*
X668199Y124446D01*
X666750Y124637D01*
D02*
G37*
G36*
X664210D02*
X662761Y124446D01*
X660228Y123397D01*
X658053Y121727D01*
X656383Y119552D01*
X655334Y117019D01*
X655143Y115570D01*
X664210D01*
Y124637D01*
D02*
G37*
G36*
X216460Y252570D02*
X178460D01*
Y232570D01*
X181588D01*
Y222090D01*
X178460D01*
Y202090D01*
X181588D01*
Y191610D01*
X178460D01*
Y171610D01*
X181588D01*
Y161130D01*
X178460D01*
Y141130D01*
X181588D01*
Y128270D01*
X181588Y128270D01*
X181588D01*
X182073Y125831D01*
X183454Y123764D01*
X189804Y117414D01*
X191871Y116033D01*
X194310Y115548D01*
X271780D01*
X274219Y116033D01*
X276286Y117414D01*
X276286Y117414D01*
X276286Y117414D01*
X283906Y125034D01*
X285287Y127101D01*
X285772Y129540D01*
X285772Y129540D01*
X285772Y129540D01*
Y129540D01*
Y136284D01*
X286974Y137206D01*
X288677Y139424D01*
X289747Y142008D01*
X290112Y144780D01*
Y154940D01*
X289747Y157712D01*
X288677Y160296D01*
X286974Y162514D01*
X284756Y164217D01*
X282172Y165287D01*
X279400Y165652D01*
X276628Y165287D01*
X274044Y164217D01*
X271826Y162514D01*
X270123Y160296D01*
X269053Y157712D01*
X268688Y154940D01*
Y144780D01*
X269053Y142008D01*
X270123Y139424D01*
X271826Y137206D01*
X273028Y136284D01*
Y132179D01*
X269140Y128292D01*
X196950D01*
X194332Y130910D01*
Y141130D01*
X216460D01*
Y153448D01*
X240888D01*
Y149860D01*
X241335Y146466D01*
X242645Y143304D01*
X243670Y141967D01*
X244723Y139424D01*
X246426Y137206D01*
X248644Y135503D01*
X251228Y134433D01*
X254000Y134068D01*
X256772Y134433D01*
X259356Y135503D01*
X261574Y137206D01*
X263277Y139424D01*
X264330Y141967D01*
X265355Y143304D01*
X266665Y146466D01*
X267112Y149860D01*
Y159820D01*
X266665Y163214D01*
X265355Y166376D01*
X263272Y169092D01*
X260556Y171176D01*
X257394Y172486D01*
X254000Y172932D01*
X250606Y172486D01*
X247444Y171176D01*
X244728Y169092D01*
X242645Y166376D01*
X242568Y166193D01*
X213332D01*
Y171610D01*
X216460D01*
Y191610D01*
X213332D01*
Y202090D01*
X216460D01*
Y222090D01*
X213332D01*
Y232570D01*
X216460D01*
Y252570D01*
D02*
G37*
G36*
X107440Y209390D02*
X90440D01*
Y208930D01*
X85210D01*
Y199390D01*
Y189850D01*
X90440D01*
Y189390D01*
X93332D01*
Y174110D01*
X93452Y173507D01*
Y162753D01*
X91486Y161244D01*
X89783Y159026D01*
X88713Y156442D01*
X88348Y153670D01*
Y143510D01*
X88713Y140738D01*
X89783Y138154D01*
X91486Y135936D01*
X93704Y134233D01*
X96288Y133163D01*
X99060Y132798D01*
X101832Y133163D01*
X104416Y134233D01*
X106634Y135936D01*
X108337Y138154D01*
X109407Y140738D01*
X109772Y143510D01*
Y153670D01*
X109407Y156442D01*
X108337Y159026D01*
X106634Y161244D01*
X104668Y162753D01*
Y173990D01*
X104548Y174593D01*
Y189390D01*
X107440D01*
Y209390D01*
D02*
G37*
G36*
X72390Y147320D02*
X63412D01*
Y143510D01*
X63762Y140858D01*
X64785Y138386D01*
X66414Y136264D01*
X68536Y134635D01*
X71008Y133611D01*
X72390Y133429D01*
Y147320D01*
D02*
G37*
G36*
X71420Y122570D02*
X64650D01*
Y114300D01*
X71420D01*
Y122570D01*
D02*
G37*
G36*
X843280Y125268D02*
X840441Y124894D01*
X837796Y123798D01*
X835525Y122055D01*
X833782Y119784D01*
X832686Y117139D01*
X832312Y114300D01*
X832686Y111461D01*
X833782Y108816D01*
X835525Y106545D01*
X837796Y104802D01*
X840441Y103706D01*
X843280Y103332D01*
X846119Y103706D01*
X848764Y104802D01*
X851035Y106545D01*
X852778Y108816D01*
X853874Y111461D01*
X854248Y114300D01*
X853874Y117139D01*
X852778Y119784D01*
X851035Y122055D01*
X848764Y123798D01*
X846119Y124894D01*
X843280Y125268D01*
D02*
G37*
G36*
X817880D02*
X815041Y124894D01*
X812396Y123798D01*
X810125Y122055D01*
X808382Y119784D01*
X807286Y117139D01*
X806912Y114300D01*
X807286Y111461D01*
X808382Y108816D01*
X810125Y106545D01*
X812396Y104802D01*
X815041Y103706D01*
X817880Y103332D01*
X820719Y103706D01*
X823364Y104802D01*
X825635Y106545D01*
X827378Y108816D01*
X828474Y111461D01*
X828848Y114300D01*
X828474Y117139D01*
X827378Y119784D01*
X825635Y122055D01*
X823364Y123798D01*
X820719Y124894D01*
X817880Y125268D01*
D02*
G37*
G36*
X71420Y111760D02*
X64650D01*
Y103490D01*
X71420D01*
Y111760D01*
D02*
G37*
G36*
X675817Y113030D02*
X666750D01*
Y103963D01*
X668199Y104154D01*
X670732Y105203D01*
X672907Y106873D01*
X674577Y109048D01*
X675626Y111581D01*
X675817Y113030D01*
D02*
G37*
G36*
X664210D02*
X655143D01*
X655334Y111581D01*
X656383Y109048D01*
X658053Y106873D01*
X660228Y105203D01*
X662761Y104154D01*
X664210Y103963D01*
Y113030D01*
D02*
G37*
G36*
X83908Y147320D02*
X74930D01*
Y133429D01*
X76312Y133611D01*
X78784Y134635D01*
X80906Y136264D01*
X82535Y138386D01*
X83559Y140858D01*
X83908Y143510D01*
Y147320D01*
D02*
G37*
G36*
X72390Y163750D02*
X71008Y163568D01*
X68536Y162545D01*
X66414Y160916D01*
X64785Y158794D01*
X63762Y156322D01*
X63412Y153670D01*
Y149860D01*
X72390D01*
Y163750D01*
D02*
G37*
G36*
X716280Y154119D02*
X714192Y153844D01*
X712245Y153038D01*
X710574Y151756D01*
X709292Y150084D01*
X709166Y149781D01*
X707896Y149781D01*
X707867Y149853D01*
X706658Y151428D01*
X705083Y152636D01*
X703249Y153396D01*
X702550Y153488D01*
Y146050D01*
Y138612D01*
X703249Y138704D01*
X705083Y139464D01*
X706658Y140672D01*
X707867Y142247D01*
X707896Y142319D01*
X709166Y142319D01*
X709292Y142015D01*
X710574Y140344D01*
X712245Y139062D01*
X714192Y138256D01*
X716280Y137981D01*
X718368Y138256D01*
X720314Y139062D01*
X721986Y140344D01*
X723268Y142015D01*
X724074Y143962D01*
X724349Y146050D01*
X724074Y148138D01*
X723268Y150084D01*
X721986Y151756D01*
X720314Y153038D01*
X718368Y153844D01*
X716280Y154119D01*
D02*
G37*
G36*
X74930Y163750D02*
Y149860D01*
X83908D01*
Y153670D01*
X83559Y156322D01*
X82535Y158794D01*
X80906Y160916D01*
X78784Y162545D01*
X76312Y163568D01*
X74930Y163750D01*
D02*
G37*
G36*
X82670Y198120D02*
X75900D01*
Y189850D01*
X82670D01*
Y198120D01*
D02*
G37*
G36*
X113030Y367281D02*
X108521Y366837D01*
X104186Y365522D01*
X100190Y363386D01*
X96688Y360512D01*
X93814Y357010D01*
X91678Y353014D01*
X90363Y348679D01*
X89919Y344170D01*
X90363Y339661D01*
X91678Y335326D01*
X93814Y331330D01*
X96688Y327828D01*
X100190Y324954D01*
X104186Y322818D01*
X108521Y321503D01*
X113030Y321059D01*
X117539Y321503D01*
X121874Y322818D01*
X125870Y324954D01*
X129372Y327828D01*
X129573Y328073D01*
X130842Y328135D01*
X181228Y277748D01*
X181228Y277748D01*
X183944Y275665D01*
X185525Y275010D01*
X187106Y274355D01*
X190500Y273908D01*
X190500Y273908D01*
X291688D01*
Y149860D01*
Y126492D01*
X291688Y126492D01*
X292135Y123098D01*
X292790Y121517D01*
X293444Y119936D01*
X295528Y117220D01*
X295528Y117220D01*
X295528Y117220D01*
D01*
X295528D01*
Y117220D01*
D01*
X298703Y114045D01*
X298703Y114045D01*
X301419Y111961D01*
X301419Y111961D01*
D01*
X301011Y110758D01*
X176530D01*
X174969Y110448D01*
X173646Y109564D01*
X169058Y104976D01*
X167841Y105480D01*
X165100Y105841D01*
X162359Y105480D01*
X159805Y104422D01*
X157611Y102739D01*
X155928Y100545D01*
X154870Y97991D01*
X154509Y95250D01*
X154870Y92509D01*
X155928Y89955D01*
X157611Y87761D01*
X159805Y86078D01*
X162359Y85020D01*
X165100Y84659D01*
X167841Y85020D01*
X170395Y86078D01*
X172589Y87761D01*
X174272Y89955D01*
X175330Y92509D01*
X175691Y95250D01*
X175330Y97991D01*
X174826Y99208D01*
X178219Y102602D01*
X181471D01*
X182032Y101463D01*
X181328Y100545D01*
X180270Y97991D01*
X179909Y95250D01*
X180270Y92509D01*
X181328Y89955D01*
X183011Y87761D01*
X185205Y86078D01*
X187759Y85020D01*
X190500Y84659D01*
X193241Y85020D01*
X195795Y86078D01*
X197989Y87761D01*
X199672Y89955D01*
X200730Y92509D01*
X201091Y95250D01*
X200730Y97991D01*
X199672Y100545D01*
X198968Y101463D01*
X199529Y102602D01*
X206870D01*
X207432Y101463D01*
X206728Y100545D01*
X205670Y97991D01*
X205309Y95250D01*
X205670Y92509D01*
X206728Y89955D01*
X208411Y87761D01*
X210605Y86078D01*
X213159Y85020D01*
X215900Y84659D01*
X218641Y85020D01*
X221195Y86078D01*
X223389Y87761D01*
X225072Y89955D01*
X226130Y92509D01*
X226491Y95250D01*
X226130Y97991D01*
X225072Y100545D01*
X224368Y101463D01*
X224930Y102602D01*
X232271D01*
X232832Y101463D01*
X232128Y100545D01*
X231070Y97991D01*
X230709Y95250D01*
X231070Y92509D01*
X232128Y89955D01*
X233811Y87761D01*
X236005Y86078D01*
X238559Y85020D01*
X241300Y84659D01*
X244041Y85020D01*
X245258Y85524D01*
X305713Y25069D01*
X305227Y23896D01*
X176666D01*
X175828Y24851D01*
X176068Y26670D01*
X175694Y29509D01*
X174598Y32154D01*
X172855Y34425D01*
X170584Y36168D01*
X167939Y37264D01*
X165100Y37638D01*
X162261Y37264D01*
X159616Y36168D01*
X157345Y34425D01*
X155602Y32154D01*
X154506Y29509D01*
X154132Y26670D01*
X154506Y23831D01*
X155602Y21186D01*
X157345Y18915D01*
X159616Y17172D01*
X162261Y16076D01*
X165100Y15702D01*
X167784Y16056D01*
X169517Y14323D01*
X171336Y13107D01*
X173482Y12680D01*
X459310D01*
X459970Y12174D01*
X461673Y11468D01*
X463500Y11228D01*
X465328Y11468D01*
X467030Y12174D01*
X467691Y12680D01*
X645668D01*
X647814Y13107D01*
X649633Y14323D01*
X649633Y14323D01*
X649633Y14323D01*
X662796Y27485D01*
X665480Y27132D01*
X668319Y27506D01*
X670964Y28602D01*
X673235Y30345D01*
X674978Y32616D01*
X676074Y35261D01*
X676448Y38100D01*
X676074Y40939D01*
X674978Y43584D01*
X673235Y45855D01*
X670964Y47598D01*
X668319Y48694D01*
X665480Y49068D01*
X662641Y48694D01*
X659996Y47598D01*
X657725Y45855D01*
X655982Y43584D01*
X654886Y40939D01*
X654512Y38100D01*
X654865Y35416D01*
X643345Y23896D01*
X531703D01*
X531217Y25069D01*
X534236Y28088D01*
X535641Y27506D01*
X538480Y27132D01*
X541319Y27506D01*
X543964Y28602D01*
X546235Y30345D01*
X547978Y32616D01*
X549074Y35261D01*
X549448Y38100D01*
X549074Y40939D01*
X547978Y43584D01*
X548524Y44690D01*
X551523D01*
X553868Y42344D01*
X553286Y40939D01*
X552912Y38100D01*
X553286Y35261D01*
X554382Y32616D01*
X556125Y30345D01*
X558396Y28602D01*
X561041Y27506D01*
X563880Y27132D01*
X566719Y27506D01*
X569364Y28602D01*
X571635Y30345D01*
X573378Y32616D01*
X574474Y35261D01*
X574848Y38100D01*
X574474Y40939D01*
X573378Y43584D01*
X571635Y45855D01*
X569364Y47598D01*
X566719Y48694D01*
X563880Y49068D01*
X561041Y48694D01*
X559636Y48112D01*
X558389Y49358D01*
X558875Y50532D01*
X571081D01*
X579268Y42344D01*
X578686Y40939D01*
X578312Y38100D01*
X578686Y35261D01*
X579782Y32616D01*
X581525Y30345D01*
X583796Y28602D01*
X586441Y27506D01*
X589280Y27132D01*
X592119Y27506D01*
X594764Y28602D01*
X597035Y30345D01*
X598778Y32616D01*
X599874Y35261D01*
X600248Y38100D01*
X599874Y40939D01*
X598778Y43584D01*
X597035Y45855D01*
X594764Y47598D01*
X592119Y48694D01*
X589280Y49068D01*
X586441Y48694D01*
X585036Y48112D01*
X577947Y55200D01*
X578433Y56374D01*
X590639D01*
X604668Y42344D01*
X604086Y40939D01*
X603712Y38100D01*
X604086Y35261D01*
X605182Y32616D01*
X606925Y30345D01*
X609196Y28602D01*
X611841Y27506D01*
X614680Y27132D01*
X617519Y27506D01*
X620164Y28602D01*
X622435Y30345D01*
X624178Y32616D01*
X625274Y35261D01*
X625648Y38100D01*
X625274Y40939D01*
X624178Y43584D01*
X622435Y45855D01*
X620164Y47598D01*
X617519Y48694D01*
X614680Y49068D01*
X611841Y48694D01*
X610436Y48112D01*
X596489Y62058D01*
X596975Y63232D01*
X609181D01*
X630068Y42344D01*
X629486Y40939D01*
X629112Y38100D01*
X629486Y35261D01*
X630582Y32616D01*
X632325Y30345D01*
X634596Y28602D01*
X637241Y27506D01*
X640080Y27132D01*
X642919Y27506D01*
X645564Y28602D01*
X647835Y30345D01*
X649578Y32616D01*
X650674Y35261D01*
X651048Y38100D01*
X650674Y40939D01*
X649578Y43584D01*
X647835Y45855D01*
X645564Y47598D01*
X642919Y48694D01*
X640080Y49068D01*
X637241Y48694D01*
X635836Y48112D01*
X615539Y68408D01*
X616025Y69582D01*
X729831D01*
X757068Y42344D01*
X756486Y40939D01*
X756112Y38100D01*
X756486Y35261D01*
X757582Y32616D01*
X759325Y30345D01*
X761596Y28602D01*
X764241Y27506D01*
X767080Y27132D01*
X769919Y27506D01*
X772564Y28602D01*
X774835Y30345D01*
X776578Y32616D01*
X777674Y35261D01*
X778048Y38100D01*
X777674Y40939D01*
X776578Y43584D01*
X774835Y45855D01*
X772564Y47598D01*
X769919Y48694D01*
X767080Y49068D01*
X764241Y48694D01*
X762836Y48112D01*
X736189Y74758D01*
X736675Y75932D01*
X748881D01*
X782468Y42344D01*
X781886Y40939D01*
X781512Y38100D01*
X781886Y35261D01*
X782982Y32616D01*
X784725Y30345D01*
X786996Y28602D01*
X789641Y27506D01*
X792480Y27132D01*
X795319Y27506D01*
X797964Y28602D01*
X800235Y30345D01*
X801978Y32616D01*
X803074Y35261D01*
X803448Y38100D01*
X803074Y40939D01*
X801978Y43584D01*
X800235Y45855D01*
X797964Y47598D01*
X795319Y48694D01*
X792480Y49068D01*
X789641Y48694D01*
X788236Y48112D01*
X756349Y79998D01*
X756835Y81172D01*
X769041D01*
X807868Y42344D01*
X807286Y40939D01*
X806912Y38100D01*
X807286Y35261D01*
X808382Y32616D01*
X810125Y30345D01*
X812396Y28602D01*
X815041Y27506D01*
X817880Y27132D01*
X820719Y27506D01*
X823364Y28602D01*
X825635Y30345D01*
X827378Y32616D01*
X828474Y35261D01*
X828848Y38100D01*
X828474Y40939D01*
X827378Y43584D01*
X825635Y45855D01*
X823364Y47598D01*
X820719Y48694D01*
X817880Y49068D01*
X815041Y48694D01*
X813636Y48112D01*
X773614Y88134D01*
X772291Y89018D01*
X772032Y89069D01*
X770730Y89328D01*
X770730Y89328D01*
X479457D01*
X478752Y90384D01*
X479682Y92629D01*
X479859Y93980D01*
X469900D01*
Y96520D01*
X479859D01*
X479682Y97871D01*
X478670Y100313D01*
X477788Y101463D01*
X478350Y102602D01*
X489547D01*
X491146Y101002D01*
X491146Y101002D01*
X492469Y100118D01*
X492469Y100118D01*
X492469Y100118D01*
D01*
X492469Y100118D01*
X492469Y100118D01*
X494030Y99808D01*
X629666D01*
X629666Y99808D01*
X630968Y100067D01*
X631227Y100118D01*
X632550Y101002D01*
X632550Y101002D01*
X632550Y101002D01*
X635836Y104288D01*
X637241Y103706D01*
X640080Y103332D01*
X642919Y103706D01*
X645564Y104802D01*
X647835Y106545D01*
X649578Y108816D01*
X650674Y111461D01*
X651048Y114300D01*
X650674Y117139D01*
X649578Y119784D01*
X647835Y122055D01*
X645564Y123798D01*
X642919Y124894D01*
X640080Y125268D01*
X637241Y124894D01*
X634596Y123798D01*
X632325Y122055D01*
X630582Y119784D01*
X629486Y117139D01*
X629112Y114300D01*
X629486Y111461D01*
X630068Y110056D01*
X627977Y107964D01*
X624969D01*
X624263Y109020D01*
X625274Y111461D01*
X625648Y114300D01*
X625274Y117139D01*
X624178Y119784D01*
X622435Y122055D01*
X620164Y123798D01*
X617519Y124894D01*
X614680Y125268D01*
X611841Y124894D01*
X609196Y123798D01*
X606925Y122055D01*
X605182Y119784D01*
X604086Y117139D01*
X603712Y114300D01*
X604086Y111461D01*
X605097Y109020D01*
X604391Y107964D01*
X599569D01*
X598863Y109020D01*
X599874Y111461D01*
X600248Y114300D01*
X599874Y117139D01*
X598778Y119784D01*
X597035Y122055D01*
X594764Y123798D01*
X592119Y124894D01*
X589280Y125268D01*
X586441Y124894D01*
X583796Y123798D01*
X581525Y122055D01*
X579782Y119784D01*
X578686Y117139D01*
X578312Y114300D01*
X578686Y111461D01*
X579697Y109020D01*
X578991Y107964D01*
X574169D01*
X573463Y109020D01*
X574474Y111461D01*
X574848Y114300D01*
X574474Y117139D01*
X573378Y119784D01*
X571635Y122055D01*
X569364Y123798D01*
X566719Y124894D01*
X563880Y125268D01*
X561041Y124894D01*
X558396Y123798D01*
X556125Y122055D01*
X554382Y119784D01*
X553286Y117139D01*
X552912Y114300D01*
X553286Y111461D01*
X554297Y109020D01*
X553591Y107964D01*
X548769D01*
X548063Y109020D01*
X549074Y111461D01*
X549448Y114300D01*
X549074Y117139D01*
X547978Y119784D01*
X546235Y122055D01*
X543964Y123798D01*
X541319Y124894D01*
X538480Y125268D01*
X535641Y124894D01*
X532996Y123798D01*
X530725Y122055D01*
X528982Y119784D01*
X527886Y117139D01*
X527512Y114300D01*
X527886Y111461D01*
X528897Y109020D01*
X528191Y107964D01*
X523369D01*
X522663Y109020D01*
X523674Y111461D01*
X524048Y114300D01*
X523674Y117139D01*
X522578Y119784D01*
X520835Y122055D01*
X518564Y123798D01*
X515919Y124894D01*
X513080Y125268D01*
X510241Y124894D01*
X507596Y123798D01*
X505325Y122055D01*
X503582Y119784D01*
X502486Y117139D01*
X502112Y114300D01*
X502486Y111461D01*
X503497Y109020D01*
X502791Y107964D01*
X495719D01*
X494120Y109564D01*
X492797Y110448D01*
X492538Y110499D01*
X491236Y110758D01*
X491236Y110758D01*
X432631D01*
X432133Y111961D01*
X432133Y111961D01*
X432133Y111961D01*
X432133Y111961D01*
X434849Y114045D01*
X434849Y114045D01*
X434849Y114045D01*
X438532Y117728D01*
X438532Y117728D01*
X438532Y117728D01*
X440616Y120444D01*
X441542Y122680D01*
X441925Y123606D01*
X442372Y127000D01*
X442372Y127000D01*
Y149860D01*
X441925Y153254D01*
X440616Y156416D01*
X439590Y157753D01*
X438537Y160296D01*
X436834Y162514D01*
X434868Y164023D01*
Y185420D01*
X434441Y187566D01*
X433225Y189385D01*
X426463Y196148D01*
X427083Y197256D01*
X430515Y196432D01*
X435610Y196031D01*
X440705Y196432D01*
X445674Y197625D01*
X450396Y199581D01*
X454754Y202251D01*
X458640Y205570D01*
X461959Y209456D01*
X464629Y213814D01*
X466585Y218536D01*
X467778Y223505D01*
X468179Y228600D01*
X467778Y233695D01*
X466585Y238664D01*
X464629Y243386D01*
X461959Y247744D01*
X458640Y251630D01*
X454754Y254949D01*
X450396Y257619D01*
X445674Y259575D01*
X440705Y260768D01*
X435610Y261169D01*
X430515Y260768D01*
X425546Y259575D01*
X420824Y257619D01*
X416466Y254949D01*
X412580Y251630D01*
X409261Y247744D01*
X406591Y243386D01*
X404635Y238664D01*
X403442Y233695D01*
X403041Y228600D01*
X403442Y223505D01*
X404635Y218536D01*
X406591Y213814D01*
X409261Y209456D01*
X412084Y206151D01*
X411553Y204998D01*
X394260D01*
Y209390D01*
X375260D01*
D01*
D01*
X375260Y209390D01*
X375260D01*
Y209390D01*
D01*
X356260D01*
Y189390D01*
X361682D01*
Y162560D01*
X361682Y162560D01*
X361941Y161258D01*
X361992Y160999D01*
X362876Y159676D01*
X362876Y159676D01*
X362876Y159676D01*
X362876Y159676D01*
Y159676D01*
X367748Y154804D01*
Y144780D01*
X368113Y142008D01*
X369183Y139424D01*
X370608Y137568D01*
X370046Y136429D01*
X317912D01*
Y149860D01*
Y273908D01*
X454309D01*
X475868Y252348D01*
X475868Y252348D01*
X478584Y250264D01*
X479510Y249881D01*
X481746Y248955D01*
X485140Y248508D01*
X485140Y248508D01*
X544949D01*
X544955Y248503D01*
X547683Y247045D01*
X550642Y246147D01*
X553720Y245844D01*
X556798Y246147D01*
X559757Y247045D01*
X562485Y248503D01*
X564875Y250465D01*
X566837Y252855D01*
X568116Y255247D01*
X663094D01*
X746064Y172278D01*
X748131Y170897D01*
X750570Y170411D01*
X842151D01*
X843231Y169964D01*
X845058Y169724D01*
X846885Y169964D01*
X848588Y170669D01*
X850050Y171792D01*
X851172Y173254D01*
X851878Y174957D01*
X852118Y176784D01*
X851878Y178611D01*
X851172Y180314D01*
X850050Y181776D01*
X848588Y182899D01*
X846885Y183604D01*
X845058Y183844D01*
X843231Y183604D01*
X842151Y183157D01*
X753210D01*
X670240Y266126D01*
X668173Y267507D01*
X665734Y267992D01*
X568116D01*
X566837Y270385D01*
X564875Y272775D01*
X562485Y274737D01*
X559757Y276195D01*
X556798Y277093D01*
X553720Y277396D01*
X550642Y277093D01*
X547683Y276195D01*
X544955Y274737D01*
X544949Y274732D01*
X490571D01*
X469012Y296292D01*
X466296Y298375D01*
X464715Y299030D01*
X463134Y299685D01*
X459740Y300132D01*
X459740Y300132D01*
X310181D01*
X309775Y300300D01*
X308194Y300955D01*
X304800Y301402D01*
X301406Y300955D01*
X299825Y300300D01*
X299419Y300132D01*
X195931D01*
X142622Y353442D01*
X139906Y355526D01*
X138325Y356180D01*
X136744Y356835D01*
X133350Y357282D01*
X133350Y357282D01*
X132023D01*
X129372Y360512D01*
X125870Y363386D01*
X121874Y365522D01*
X117539Y366837D01*
X113030Y367281D01*
D02*
G37*
G36*
X931820Y155094D02*
Y145900D01*
X941014D01*
X940818Y147382D01*
X939756Y149946D01*
X938067Y152147D01*
X935865Y153837D01*
X933301Y154899D01*
X931820Y155094D01*
D02*
G37*
G36*
X929280Y143360D02*
X920086D01*
X920281Y141879D01*
X921343Y139315D01*
X923033Y137113D01*
X925234Y135423D01*
X927798Y134361D01*
X929280Y134166D01*
Y143360D01*
D02*
G37*
G36*
X880550Y155725D02*
X877678Y155347D01*
X875003Y154239D01*
X872705Y152475D01*
X870941Y150178D01*
X870333Y148708D01*
X822810D01*
X821249Y148398D01*
X819926Y147514D01*
X819926Y147514D01*
X796724Y124312D01*
X795319Y124894D01*
X792480Y125268D01*
X789641Y124894D01*
X786996Y123798D01*
X784725Y122055D01*
X782982Y119784D01*
X781886Y117139D01*
X781512Y114300D01*
X781886Y111461D01*
X782982Y108816D01*
X784725Y106545D01*
X786996Y104802D01*
X789641Y103706D01*
X792480Y103332D01*
X795319Y103706D01*
X797964Y104802D01*
X800235Y106545D01*
X801978Y108816D01*
X803074Y111461D01*
X803448Y114300D01*
X803074Y117139D01*
X802492Y118544D01*
X824499Y140552D01*
X870333D01*
X870941Y139083D01*
X872705Y136785D01*
X875003Y135022D01*
X877678Y133913D01*
X880550Y133535D01*
X883421Y133913D01*
X886097Y135022D01*
X888395Y136785D01*
X890158Y139083D01*
X891267Y141759D01*
X891645Y144630D01*
X891267Y147502D01*
X890158Y150178D01*
X888395Y152475D01*
X886097Y154239D01*
X883421Y155347D01*
X880550Y155725D01*
D02*
G37*
G36*
X941014Y143360D02*
X931820D01*
Y134166D01*
X933301Y134361D01*
X935865Y135423D01*
X938067Y137113D01*
X939756Y139315D01*
X940818Y141879D01*
X941014Y143360D01*
D02*
G37*
G36*
X929280Y155094D02*
X927798Y154899D01*
X925234Y153837D01*
X923033Y152147D01*
X921343Y149946D01*
X920281Y147382D01*
X920086Y145900D01*
X929280D01*
Y155094D01*
D02*
G37*
G36*
X690880Y175985D02*
X689053Y175744D01*
X687350Y175039D01*
X685888Y173917D01*
X684765Y172454D01*
X684060Y170752D01*
X683820Y168924D01*
X684060Y167097D01*
X684765Y165394D01*
X685888Y163932D01*
X686802Y163230D01*
Y124381D01*
X685396Y123798D01*
X683125Y122055D01*
X681382Y119784D01*
X680286Y117139D01*
X679912Y114300D01*
X680286Y111461D01*
X681382Y108816D01*
X683125Y106545D01*
X685396Y104802D01*
X688041Y103706D01*
X690880Y103332D01*
X693719Y103706D01*
X696364Y104802D01*
X698635Y106545D01*
X700378Y108816D01*
X701474Y111461D01*
X701848Y114300D01*
X701474Y117139D01*
X700378Y119784D01*
X698635Y122055D01*
X696364Y123798D01*
X694958Y124381D01*
Y139961D01*
X696097Y140523D01*
X697478Y139464D01*
X699312Y138704D01*
X700010Y138612D01*
Y146050D01*
Y153488D01*
X699312Y153396D01*
X697478Y152636D01*
X696097Y151577D01*
X694958Y152139D01*
Y163230D01*
X695872Y163932D01*
X696994Y165394D01*
X697700Y167097D01*
X697940Y168924D01*
X697700Y170752D01*
X696994Y172454D01*
X695872Y173917D01*
X694410Y175039D01*
X692707Y175744D01*
X690880Y175985D01*
D02*
G37*
G36*
X113030Y37007D02*
X111581Y36816D01*
X109048Y35767D01*
X106873Y34097D01*
X105203Y31922D01*
X104154Y29389D01*
X103963Y27940D01*
X113030D01*
Y37007D01*
D02*
G37*
G36*
X701217Y36830D02*
X692150D01*
Y27763D01*
X693599Y27954D01*
X696132Y29003D01*
X698307Y30673D01*
X699977Y32848D01*
X701026Y35381D01*
X701217Y36830D01*
D02*
G37*
G36*
X115570Y37007D02*
Y27940D01*
X124637D01*
X124446Y29389D01*
X123397Y31922D01*
X121727Y34097D01*
X119552Y35767D01*
X117019Y36816D01*
X115570Y37007D01*
D02*
G37*
G36*
X689610Y48437D02*
X688161Y48246D01*
X685628Y47197D01*
X683453Y45527D01*
X681783Y43352D01*
X680734Y40819D01*
X680543Y39370D01*
X689610D01*
Y48437D01*
D02*
G37*
G36*
X918270Y62880D02*
X916443Y62640D01*
X914740Y61934D01*
X913278Y60813D01*
X912156Y59350D01*
X911450Y57647D01*
X911210Y55820D01*
X911450Y53993D01*
X911461Y53966D01*
X910756Y52910D01*
X907270D01*
Y30910D01*
X929270D01*
Y52910D01*
X925784D01*
X925079Y53966D01*
X925090Y53993D01*
X925330Y55820D01*
X925090Y57647D01*
X924384Y59350D01*
X923262Y60813D01*
X921800Y61934D01*
X920097Y62640D01*
X918270Y62880D01*
D02*
G37*
G36*
X689610Y36830D02*
X680543D01*
X680734Y35381D01*
X681783Y32848D01*
X683453Y30673D01*
X685628Y29003D01*
X688161Y27954D01*
X689610Y27763D01*
Y36830D01*
D02*
G37*
G36*
X124637Y25400D02*
X115570D01*
Y16333D01*
X117019Y16524D01*
X119552Y17573D01*
X121727Y19243D01*
X123397Y21418D01*
X124446Y23951D01*
X124637Y25400D01*
D02*
G37*
G36*
X113030D02*
X103963D01*
X104154Y23951D01*
X105203Y21418D01*
X106873Y19243D01*
X109048Y17573D01*
X111581Y16524D01*
X113030Y16333D01*
Y25400D01*
D02*
G37*
G36*
X716280Y49068D02*
X713441Y48694D01*
X710796Y47598D01*
X708525Y45855D01*
X706782Y43584D01*
X705686Y40939D01*
X705312Y38100D01*
X705686Y35261D01*
X706782Y32616D01*
X708525Y30345D01*
X710796Y28602D01*
X713441Y27506D01*
X716280Y27132D01*
X719119Y27506D01*
X721764Y28602D01*
X724035Y30345D01*
X725778Y32616D01*
X726874Y35261D01*
X727248Y38100D01*
X726874Y40939D01*
X725778Y43584D01*
X724035Y45855D01*
X721764Y47598D01*
X719119Y48694D01*
X716280Y49068D01*
D02*
G37*
G36*
X843280D02*
X840441Y48694D01*
X837796Y47598D01*
X835525Y45855D01*
X833782Y43584D01*
X832686Y40939D01*
X832312Y38100D01*
X832686Y35261D01*
X833782Y32616D01*
X835525Y30345D01*
X837796Y28602D01*
X840441Y27506D01*
X843280Y27132D01*
X846119Y27506D01*
X848764Y28602D01*
X851035Y30345D01*
X852778Y32616D01*
X853874Y35261D01*
X854248Y38100D01*
X853874Y40939D01*
X852778Y43584D01*
X851035Y45855D01*
X848764Y47598D01*
X846119Y48694D01*
X843280Y49068D01*
D02*
G37*
G36*
X741680D02*
X738841Y48694D01*
X736196Y47598D01*
X733925Y45855D01*
X732182Y43584D01*
X731086Y40939D01*
X730712Y38100D01*
X731086Y35261D01*
X732182Y32616D01*
X733925Y30345D01*
X736196Y28602D01*
X738841Y27506D01*
X741680Y27132D01*
X744519Y27506D01*
X747164Y28602D01*
X749435Y30345D01*
X751178Y32616D01*
X752274Y35261D01*
X752648Y38100D01*
X752274Y40939D01*
X751178Y43584D01*
X749435Y45855D01*
X747164Y47598D01*
X744519Y48694D01*
X741680Y49068D01*
D02*
G37*
G36*
X692150Y48437D02*
Y39370D01*
X701217D01*
X701026Y40819D01*
X699977Y43352D01*
X698307Y45527D01*
X696132Y47197D01*
X693599Y48246D01*
X692150Y48437D01*
D02*
G37*
G36*
X48260Y164382D02*
X45488Y164017D01*
X42904Y162947D01*
X40686Y161244D01*
X38983Y159026D01*
X37913Y156442D01*
X37548Y153670D01*
Y143510D01*
X37913Y140738D01*
X38983Y138154D01*
X40686Y135936D01*
X41704Y135154D01*
Y133177D01*
X41047Y132194D01*
X40620Y130048D01*
X41047Y127902D01*
X41130Y127778D01*
Y123030D01*
X39880D01*
Y103030D01*
X56880D01*
Y103490D01*
X62110D01*
Y113030D01*
Y122570D01*
X56880D01*
Y123030D01*
X51326D01*
Y126314D01*
X51538Y126402D01*
X52896Y127444D01*
X53938Y128802D01*
X54593Y130383D01*
X54816Y132080D01*
Y135154D01*
X55834Y135936D01*
X57537Y138154D01*
X58607Y140738D01*
X58972Y143510D01*
Y153670D01*
X58607Y156442D01*
X57537Y159026D01*
X55834Y161244D01*
X53616Y162947D01*
X51032Y164017D01*
X48260Y164382D01*
D02*
G37*
G36*
X98940Y105290D02*
X90170D01*
Y96520D01*
X98940D01*
Y105290D01*
D02*
G37*
G36*
X716280Y125268D02*
X713441Y124894D01*
X710796Y123798D01*
X708525Y122055D01*
X706782Y119784D01*
X705686Y117139D01*
X705312Y114300D01*
X705686Y111461D01*
X706782Y108816D01*
X708525Y106545D01*
X710796Y104802D01*
X713441Y103706D01*
X716280Y103332D01*
X719119Y103706D01*
X721764Y104802D01*
X724035Y106545D01*
X725778Y108816D01*
X726874Y111461D01*
X727248Y114300D01*
X726874Y117139D01*
X725778Y119784D01*
X724035Y122055D01*
X721764Y123798D01*
X719119Y124894D01*
X716280Y125268D01*
D02*
G37*
G36*
X767080D02*
X764241Y124894D01*
X761596Y123798D01*
X759325Y122055D01*
X757582Y119784D01*
X756486Y117139D01*
X756112Y114300D01*
X756486Y111461D01*
X757582Y108816D01*
X759325Y106545D01*
X761596Y104802D01*
X764241Y103706D01*
X767080Y103332D01*
X769919Y103706D01*
X772564Y104802D01*
X774835Y106545D01*
X776578Y108816D01*
X777674Y111461D01*
X778048Y114300D01*
X777674Y117139D01*
X776578Y119784D01*
X774835Y122055D01*
X772564Y123798D01*
X769919Y124894D01*
X767080Y125268D01*
D02*
G37*
G36*
X741680D02*
X738841Y124894D01*
X736196Y123798D01*
X733925Y122055D01*
X732182Y119784D01*
X731086Y117139D01*
X730712Y114300D01*
X731086Y111461D01*
X732182Y108816D01*
X733925Y106545D01*
X736196Y104802D01*
X738841Y103706D01*
X741680Y103332D01*
X744519Y103706D01*
X747164Y104802D01*
X749435Y106545D01*
X751178Y108816D01*
X752274Y111461D01*
X752648Y114300D01*
X752274Y117139D01*
X751178Y119784D01*
X749435Y122055D01*
X747164Y123798D01*
X744519Y124894D01*
X741680Y125268D01*
D02*
G37*
G36*
X87630Y105290D02*
X78860D01*
Y96520D01*
X87630D01*
Y105290D01*
D02*
G37*
G36*
X114300Y105841D02*
X111559Y105480D01*
X109005Y104422D01*
X106811Y102739D01*
X105128Y100545D01*
X104070Y97991D01*
X103709Y95250D01*
X104070Y92509D01*
X105128Y89955D01*
X106811Y87761D01*
X109005Y86078D01*
X111559Y85020D01*
X114300Y84659D01*
X117041Y85020D01*
X119595Y86078D01*
X121789Y87761D01*
X123472Y89955D01*
X124530Y92509D01*
X124891Y95250D01*
X124530Y97991D01*
X123472Y100545D01*
X121789Y102739D01*
X119595Y104422D01*
X117041Y105480D01*
X114300Y105841D01*
D02*
G37*
G36*
X139700Y63038D02*
X136861Y62664D01*
X134216Y61568D01*
X131945Y59825D01*
X130202Y57554D01*
X129106Y54909D01*
X128732Y52070D01*
X129106Y49231D01*
X130202Y46586D01*
X131945Y44315D01*
X134216Y42572D01*
X136861Y41476D01*
X139700Y41102D01*
X142539Y41476D01*
X145184Y42572D01*
X147455Y44315D01*
X149198Y46586D01*
X150294Y49231D01*
X150668Y52070D01*
X150294Y54909D01*
X149198Y57554D01*
X147455Y59825D01*
X145184Y61568D01*
X142539Y62664D01*
X139700Y63038D01*
D02*
G37*
G36*
Y105841D02*
X136959Y105480D01*
X134405Y104422D01*
X132211Y102739D01*
X130528Y100545D01*
X129470Y97991D01*
X129109Y95250D01*
X129470Y92509D01*
X130528Y89955D01*
X132211Y87761D01*
X134405Y86078D01*
X136959Y85020D01*
X139700Y84659D01*
X142441Y85020D01*
X144995Y86078D01*
X147189Y87761D01*
X148872Y89955D01*
X149930Y92509D01*
X150291Y95250D01*
X149930Y97991D01*
X148872Y100545D01*
X147189Y102739D01*
X144995Y104422D01*
X142441Y105480D01*
X139700Y105841D01*
D02*
G37*
G36*
X98940Y93980D02*
X90170D01*
Y85210D01*
X98940D01*
Y93980D01*
D02*
G37*
G36*
X87630D02*
X78860D01*
Y85210D01*
X87630D01*
Y93980D01*
D02*
G37*
G36*
X839470Y232717D02*
X835941Y232369D01*
X832548Y231340D01*
X829421Y229669D01*
X826681Y227419D01*
X824431Y224679D01*
X822760Y221552D01*
X821730Y218159D01*
X821383Y214630D01*
X821730Y211101D01*
X822760Y207708D01*
X824431Y204581D01*
X826681Y201840D01*
X829421Y199591D01*
X832548Y197920D01*
X835941Y196891D01*
X839470Y196543D01*
X842999Y196891D01*
X846392Y197920D01*
X849519Y199591D01*
X852260Y201840D01*
X854509Y204581D01*
X856180Y207708D01*
X857209Y211101D01*
X857557Y214630D01*
X857209Y218159D01*
X856180Y221552D01*
X854509Y224679D01*
X852260Y227419D01*
X849519Y229669D01*
X846392Y231340D01*
X842999Y232369D01*
X839470Y232717D01*
D02*
G37*
G36*
X361950Y366694D02*
X358801Y366384D01*
X354553Y365095D01*
X350637Y363002D01*
X347205Y360185D01*
X344388Y356753D01*
X342295Y352837D01*
X341006Y348589D01*
X340696Y345440D01*
X361950D01*
Y366694D01*
D02*
G37*
G36*
X554990Y353009D02*
Y339090D01*
X568909D01*
X568740Y340808D01*
X567868Y343680D01*
X566453Y346328D01*
X564548Y348648D01*
X562228Y350553D01*
X559580Y351968D01*
X556708Y352840D01*
X554990Y353009D01*
D02*
G37*
G36*
X364490Y366694D02*
Y345440D01*
X385744D01*
X385434Y348589D01*
X384145Y352837D01*
X382052Y356753D01*
X379235Y360185D01*
X375803Y363002D01*
X371887Y365095D01*
X367639Y366384D01*
X364490Y366694D01*
D02*
G37*
G36*
X760730Y408618D02*
X758184Y408283D01*
X755811Y407300D01*
X753773Y405737D01*
X752210Y403699D01*
X751227Y401326D01*
X750892Y398780D01*
X751227Y396234D01*
X752210Y393861D01*
X753773Y391823D01*
X755811Y390260D01*
X758184Y389277D01*
X760730Y388942D01*
X763276Y389277D01*
X765649Y390260D01*
X767687Y391823D01*
X769250Y393861D01*
X770233Y396234D01*
X770568Y398780D01*
X770233Y401326D01*
X769250Y403699D01*
X767687Y405737D01*
X765649Y407300D01*
X763276Y408283D01*
X760730Y408618D01*
D02*
G37*
G36*
Y383218D02*
X758184Y382883D01*
X755811Y381900D01*
X753773Y380337D01*
X752210Y378299D01*
X751227Y375926D01*
X750892Y373380D01*
X751227Y370834D01*
X752210Y368461D01*
X753773Y366423D01*
X755811Y364860D01*
X758184Y363877D01*
X760730Y363542D01*
X763276Y363877D01*
X765649Y364860D01*
X767687Y366423D01*
X769250Y368461D01*
X770233Y370834D01*
X770568Y373380D01*
X770233Y375926D01*
X769250Y378299D01*
X767687Y380337D01*
X765649Y381900D01*
X763276Y382883D01*
X760730Y383218D01*
D02*
G37*
G36*
X552450Y353009D02*
X550732Y352840D01*
X547860Y351968D01*
X545212Y350553D01*
X542892Y348648D01*
X540987Y346328D01*
X539572Y343680D01*
X538700Y340808D01*
X538531Y339090D01*
X552450D01*
Y353009D01*
D02*
G37*
G36*
X568909Y336550D02*
X554990D01*
Y322631D01*
X556708Y322800D01*
X559580Y323672D01*
X562228Y325087D01*
X564548Y326992D01*
X566453Y329312D01*
X567868Y331960D01*
X568740Y334832D01*
X568909Y336550D01*
D02*
G37*
G36*
X552450D02*
X538531D01*
X538700Y334832D01*
X539572Y331960D01*
X540987Y329312D01*
X542892Y326992D01*
X545212Y325087D01*
X547860Y323672D01*
X550732Y322800D01*
X552450Y322631D01*
Y336550D01*
D02*
G37*
G36*
X759460Y331787D02*
X758304Y331635D01*
X756043Y330698D01*
X754101Y329208D01*
X752612Y327267D01*
X751675Y325006D01*
X751523Y323850D01*
X759460D01*
Y331787D01*
D02*
G37*
G36*
X760730Y357818D02*
X758184Y357483D01*
X755811Y356500D01*
X753773Y354937D01*
X752210Y352899D01*
X751227Y350526D01*
X750892Y347980D01*
X751227Y345434D01*
X752210Y343061D01*
X753773Y341023D01*
X755811Y339460D01*
X758184Y338477D01*
X760730Y338142D01*
X763276Y338477D01*
X765649Y339460D01*
X767687Y341023D01*
X769250Y343061D01*
X770233Y345434D01*
X770568Y347980D01*
X770233Y350526D01*
X769250Y352899D01*
X767687Y354937D01*
X765649Y356500D01*
X763276Y357483D01*
X760730Y357818D01*
D02*
G37*
G36*
X762000Y331787D02*
Y323850D01*
X769937D01*
X769785Y325006D01*
X768848Y327267D01*
X767358Y329208D01*
X765417Y330698D01*
X763156Y331635D01*
X762000Y331787D01*
D02*
G37*
G36*
X770484Y433934D02*
X750976D01*
Y414426D01*
X770484D01*
Y433934D01*
D02*
G37*
G36*
X154940Y441498D02*
X153328Y441286D01*
X150642Y440173D01*
X148336Y438404D01*
X146567Y436098D01*
X145454Y433412D01*
X145242Y431800D01*
X154940D01*
Y441498D01*
D02*
G37*
G36*
X110930Y441570D02*
X106680D01*
Y431800D01*
X116450D01*
Y436050D01*
X110930Y441570D01*
D02*
G37*
G36*
X157480Y441498D02*
Y431800D01*
X167178D01*
X166966Y433412D01*
X165853Y436098D01*
X164084Y438404D01*
X161778Y440173D01*
X159092Y441286D01*
X157480Y441498D01*
D02*
G37*
G36*
X508254Y480218D02*
X508254Y480218D01*
X252476D01*
X252476Y480218D01*
X249082Y479771D01*
X246846Y478845D01*
X245920Y478461D01*
X243204Y476378D01*
X243204Y476378D01*
X206628Y439802D01*
X204545Y437086D01*
X203235Y433924D01*
X202788Y430530D01*
X203235Y427136D01*
X204545Y423974D01*
X206628Y421258D01*
X209344Y419174D01*
X212506Y417865D01*
X215900Y417418D01*
X219294Y417865D01*
X222456Y419174D01*
X225172Y421258D01*
X257907Y453994D01*
X308974D01*
X309160Y452738D01*
X307784Y452320D01*
X304657Y450649D01*
X301917Y448400D01*
X299667Y445659D01*
X297996Y442532D01*
X296966Y439139D01*
X296619Y435610D01*
X296966Y432081D01*
X297996Y428688D01*
X299667Y425561D01*
X301917Y422821D01*
X304657Y420571D01*
X307784Y418900D01*
X311177Y417870D01*
X314706Y417523D01*
X318235Y417870D01*
X321628Y418900D01*
X324755Y420571D01*
X327495Y422821D01*
X329745Y425561D01*
X331416Y428688D01*
X332445Y432081D01*
X332793Y435610D01*
X332445Y439139D01*
X331416Y442532D01*
X329745Y445659D01*
X327495Y448400D01*
X324755Y450649D01*
X321628Y452320D01*
X320252Y452738D01*
X320438Y453994D01*
X502823D01*
X521713Y435104D01*
X522010Y432081D01*
X523040Y428688D01*
X524711Y425561D01*
X526960Y422821D01*
X529701Y420571D01*
X532828Y418900D01*
X536221Y417870D01*
X539750Y417523D01*
X543279Y417870D01*
X546672Y418900D01*
X549799Y420571D01*
X552539Y422821D01*
X554789Y425561D01*
X556460Y428688D01*
X557490Y432081D01*
X557837Y435610D01*
X557490Y439139D01*
X556460Y442532D01*
X554789Y445659D01*
X552539Y448400D01*
X549799Y450649D01*
X546672Y452320D01*
X543279Y453349D01*
X540256Y453647D01*
X517526Y476378D01*
X514810Y478461D01*
X513229Y479116D01*
X511648Y479771D01*
X508254Y480218D01*
D02*
G37*
G36*
X676560Y484545D02*
X624573D01*
Y457550D01*
X676560D01*
Y484545D01*
D02*
G37*
G36*
X104140Y441570D02*
X99890D01*
X94370Y436050D01*
Y431800D01*
X104140D01*
Y441570D01*
D02*
G37*
G36*
Y429260D02*
X94370D01*
Y425010D01*
X99890Y419490D01*
X104140D01*
Y429260D01*
D02*
G37*
G36*
X266700Y442129D02*
X263698Y441734D01*
X260900Y440575D01*
X258498Y438732D01*
X256655Y436330D01*
X255496Y433532D01*
X255101Y430530D01*
X255496Y427528D01*
X256655Y424730D01*
X258498Y422328D01*
X260900Y420485D01*
X263698Y419326D01*
X266700Y418931D01*
X269702Y419326D01*
X272500Y420485D01*
X274902Y422328D01*
X276745Y424730D01*
X277904Y427528D01*
X278299Y430530D01*
X277904Y433532D01*
X276745Y436330D01*
X274902Y438732D01*
X272500Y440575D01*
X269702Y441734D01*
X266700Y442129D01*
D02*
G37*
G36*
X116450Y429260D02*
X106680D01*
Y419490D01*
X110930D01*
X116450Y425010D01*
Y429260D01*
D02*
G37*
G36*
X167178D02*
X157480D01*
Y419562D01*
X159092Y419774D01*
X161778Y420887D01*
X164084Y422656D01*
X165853Y424962D01*
X166966Y427648D01*
X167178Y429260D01*
D02*
G37*
G36*
X154940D02*
X145242D01*
X145454Y427648D01*
X146567Y424962D01*
X148336Y422656D01*
X150642Y420887D01*
X153328Y419774D01*
X154940Y419562D01*
Y429260D01*
D02*
G37*
G36*
X880550Y300725D02*
X877678Y300347D01*
X875003Y299239D01*
X872705Y297475D01*
X870941Y295178D01*
X869833Y292502D01*
X869455Y289630D01*
X869833Y286758D01*
X870941Y284083D01*
X872705Y281785D01*
X875003Y280022D01*
X877678Y278913D01*
X880550Y278535D01*
X883421Y278913D01*
X886097Y280022D01*
X888395Y281785D01*
X890158Y284083D01*
X891267Y286758D01*
X891645Y289630D01*
X891267Y292502D01*
X890158Y295178D01*
X888395Y297475D01*
X886097Y299239D01*
X883421Y300347D01*
X880550Y300725D01*
D02*
G37*
G36*
X760730Y281618D02*
X758184Y281283D01*
X755811Y280300D01*
X753773Y278737D01*
X752210Y276699D01*
X751227Y274326D01*
X750892Y271780D01*
X751227Y269234D01*
X752210Y266861D01*
X753773Y264823D01*
X755811Y263260D01*
X758184Y262277D01*
X760730Y261942D01*
X763276Y262277D01*
X765649Y263260D01*
X767687Y264823D01*
X769250Y266861D01*
X770233Y269234D01*
X770568Y271780D01*
X770233Y274326D01*
X769250Y276699D01*
X767687Y278737D01*
X765649Y280300D01*
X763276Y281283D01*
X760730Y281618D01*
D02*
G37*
G36*
X930550Y300725D02*
X927678Y300347D01*
X925002Y299239D01*
X922705Y297475D01*
X920941Y295178D01*
X919833Y292502D01*
X919455Y289630D01*
X919833Y286758D01*
X920941Y284083D01*
X922705Y281785D01*
X925002Y280022D01*
X927678Y278913D01*
X930550Y278535D01*
X933421Y278913D01*
X936097Y280022D01*
X938395Y281785D01*
X940158Y284083D01*
X941267Y286758D01*
X941645Y289630D01*
X941267Y292502D01*
X940158Y295178D01*
X938395Y297475D01*
X936097Y299239D01*
X933421Y300347D01*
X930550Y300725D01*
D02*
G37*
G36*
X916014Y288360D02*
X906820D01*
Y279166D01*
X908302Y279361D01*
X910866Y280423D01*
X913067Y282113D01*
X914757Y284315D01*
X915819Y286879D01*
X916014Y288360D01*
D02*
G37*
G36*
X904280D02*
X895086D01*
X895281Y286879D01*
X896344Y284315D01*
X898033Y282113D01*
X900235Y280423D01*
X902799Y279361D01*
X904280Y279166D01*
Y288360D01*
D02*
G37*
G36*
X762000Y255587D02*
Y247650D01*
X769937D01*
X769785Y248806D01*
X768848Y251067D01*
X767358Y253008D01*
X765417Y254498D01*
X763156Y255435D01*
X762000Y255587D01*
D02*
G37*
G36*
X82670Y208930D02*
X75900D01*
Y200660D01*
X82670D01*
Y208930D01*
D02*
G37*
G36*
X971550Y232717D02*
X968021Y232369D01*
X964628Y231340D01*
X961501Y229669D01*
X958761Y227419D01*
X956511Y224679D01*
X954840Y221552D01*
X953811Y218159D01*
X953463Y214630D01*
X953811Y211101D01*
X954840Y207708D01*
X956511Y204581D01*
X958761Y201840D01*
X961501Y199591D01*
X964628Y197920D01*
X968021Y196891D01*
X971550Y196543D01*
X975079Y196891D01*
X978472Y197920D01*
X981599Y199591D01*
X984340Y201840D01*
X986589Y204581D01*
X988260Y207708D01*
X989289Y211101D01*
X989637Y214630D01*
X989289Y218159D01*
X988260Y221552D01*
X986589Y224679D01*
X984340Y227419D01*
X981599Y229669D01*
X978472Y231340D01*
X975079Y232369D01*
X971550Y232717D01*
D02*
G37*
G36*
X759460Y245110D02*
X751523D01*
X751675Y243954D01*
X752612Y241693D01*
X754101Y239751D01*
X756043Y238262D01*
X758304Y237325D01*
X759460Y237173D01*
Y245110D01*
D02*
G37*
G36*
Y255587D02*
X758304Y255435D01*
X756043Y254498D01*
X754101Y253008D01*
X752612Y251067D01*
X751675Y248806D01*
X751523Y247650D01*
X759460D01*
Y255587D01*
D02*
G37*
G36*
X769937Y245110D02*
X762000D01*
Y237173D01*
X763156Y237325D01*
X765417Y238262D01*
X767358Y239751D01*
X768848Y241693D01*
X769785Y243954D01*
X769937Y245110D01*
D02*
G37*
G36*
X759460Y295910D02*
X751523D01*
X751675Y294754D01*
X752612Y292493D01*
X754101Y290551D01*
X756043Y289062D01*
X758304Y288125D01*
X759460Y287973D01*
Y295910D01*
D02*
G37*
G36*
X213106Y367281D02*
X208597Y366837D01*
X204262Y365522D01*
X200266Y363386D01*
X196764Y360512D01*
X193890Y357010D01*
X191754Y353014D01*
X190439Y348679D01*
X189995Y344170D01*
X190439Y339661D01*
X191754Y335326D01*
X193890Y331330D01*
X196764Y327828D01*
X200266Y324954D01*
X204262Y322818D01*
X208597Y321503D01*
X213106Y321059D01*
X217615Y321503D01*
X221950Y322818D01*
X225946Y324954D01*
X229448Y327828D01*
X232322Y331330D01*
X234458Y335326D01*
X235773Y339661D01*
X236217Y344170D01*
X235773Y348679D01*
X234458Y353014D01*
X232322Y357010D01*
X229448Y360512D01*
X225946Y363386D01*
X221950Y365522D01*
X217615Y366837D01*
X213106Y367281D01*
D02*
G37*
G36*
X769937Y321310D02*
X762000D01*
Y313373D01*
X763156Y313525D01*
X765417Y314462D01*
X767358Y315951D01*
X768848Y317893D01*
X769785Y320154D01*
X769937Y321310D01*
D02*
G37*
G36*
X288030Y367281D02*
X283521Y366837D01*
X279186Y365522D01*
X275190Y363386D01*
X271688Y360512D01*
X268814Y357010D01*
X266678Y353014D01*
X265363Y348679D01*
X264919Y344170D01*
X265363Y339661D01*
X266678Y335326D01*
X268814Y331330D01*
X271688Y327828D01*
X275190Y324954D01*
X279186Y322818D01*
X283521Y321503D01*
X288030Y321059D01*
X292539Y321503D01*
X296874Y322818D01*
X300870Y324954D01*
X304372Y327828D01*
X307246Y331330D01*
X309382Y335326D01*
X310697Y339661D01*
X311141Y344170D01*
X310697Y348679D01*
X309382Y353014D01*
X307246Y357010D01*
X304372Y360512D01*
X300870Y363386D01*
X296874Y365522D01*
X292539Y366837D01*
X288030Y367281D01*
D02*
G37*
G36*
X385744Y342900D02*
X364490D01*
Y321646D01*
X367639Y321956D01*
X371887Y323245D01*
X375803Y325338D01*
X379235Y328155D01*
X382052Y331587D01*
X384145Y335503D01*
X385434Y339751D01*
X385744Y342900D01*
D02*
G37*
G36*
X361950D02*
X340696D01*
X341006Y339751D01*
X342295Y335503D01*
X344388Y331587D01*
X347205Y328155D01*
X350637Y325338D01*
X354553Y323245D01*
X358801Y321956D01*
X361950Y321646D01*
Y342900D01*
D02*
G37*
G36*
X759460Y321310D02*
X751523D01*
X751675Y320154D01*
X752612Y317893D01*
X754101Y315951D01*
X756043Y314462D01*
X758304Y313525D01*
X759460Y313373D01*
Y321310D01*
D02*
G37*
G36*
X904280Y300094D02*
X902799Y299899D01*
X900235Y298837D01*
X898033Y297147D01*
X896344Y294946D01*
X895281Y292382D01*
X895086Y290900D01*
X904280D01*
Y300094D01*
D02*
G37*
G36*
X769937Y295910D02*
X762000D01*
Y287973D01*
X763156Y288125D01*
X765417Y289062D01*
X767358Y290551D01*
X768848Y292493D01*
X769785Y294754D01*
X769937Y295910D01*
D02*
G37*
G36*
X906820Y300094D02*
Y290900D01*
X916014D01*
X915819Y292382D01*
X914757Y294946D01*
X913067Y297147D01*
X910866Y298837D01*
X908302Y299899D01*
X906820Y300094D01*
D02*
G37*
G36*
X762000Y306387D02*
Y298450D01*
X769937D01*
X769785Y299606D01*
X768848Y301867D01*
X767358Y303808D01*
X765417Y305298D01*
X763156Y306235D01*
X762000Y306387D01*
D02*
G37*
G36*
X759460D02*
X758304Y306235D01*
X756043Y305298D01*
X754101Y303808D01*
X752612Y301867D01*
X751675Y299606D01*
X751523Y298450D01*
X759460D01*
Y306387D01*
D02*
G37*
%LPD*%
D10*
X83940Y199390D02*
D03*
X98940D02*
D03*
X63380Y113030D02*
D03*
X48380D02*
D03*
D11*
X384760Y199390D02*
D03*
X365760D02*
D03*
X206960Y242570D02*
D03*
X187960D02*
D03*
X206960Y212090D02*
D03*
X187960D02*
D03*
X206960Y181610D02*
D03*
X187960D02*
D03*
X206960Y151130D02*
D03*
X187960D02*
D03*
D15*
X46228Y130048D02*
X48260Y132080D01*
X429260Y149860D02*
Y185420D01*
X165100Y26670D02*
X173482Y18288D01*
X463500D02*
X645668D01*
X665480Y38100D01*
X99060Y148590D02*
Y173990D01*
X98940Y174110D02*
X99060Y173990D01*
X98940Y174110D02*
Y199390D01*
X173482Y18288D02*
X463500D01*
X384760Y199390D02*
X415290D01*
X429260Y185420D01*
D16*
X629666Y103886D02*
X640080Y114300D01*
X494030Y103886D02*
X629666D01*
X491236Y106680D02*
X494030Y103886D01*
X176530Y106680D02*
X491236D01*
X165100Y95250D02*
X176530Y106680D01*
X592328Y60452D02*
X614680Y38100D01*
X352298Y60452D02*
X592328D01*
X317500Y95250D02*
X352298Y60452D01*
X553212Y48768D02*
X563880Y38100D01*
X313182Y48768D02*
X553212D01*
X266700Y95250D02*
X313182Y48768D01*
X526542Y26162D02*
X538480Y38100D01*
X310388Y26162D02*
X526542D01*
X241300Y95250D02*
X310388Y26162D01*
X822810Y144630D02*
X880550D01*
X792480Y114300D02*
X822810Y144630D01*
X918270Y41910D02*
Y55820D01*
X365760Y162560D02*
X378460Y149860D01*
X365760Y162560D02*
Y199390D01*
X690880Y114300D02*
Y168924D01*
X419100Y95250D02*
X429100Y85250D01*
X770730D01*
X817880Y38100D01*
X292100Y95250D02*
X332740Y54610D01*
X572770D01*
X589280Y38100D01*
X342900Y95250D02*
X370840Y67310D01*
X610870D01*
X640080Y38100D01*
X368300Y95250D02*
X389890Y73660D01*
X731520D01*
X767080Y38100D01*
X393700Y95250D02*
X408940Y80010D01*
X750570D01*
X792480Y38100D01*
X871220Y17780D02*
X890270Y36830D01*
Y41910D01*
D17*
X215900Y430530D02*
X252476Y467106D01*
X508254D01*
X539750Y435610D01*
X429260Y127000D02*
Y149860D01*
X425577Y123317D02*
X429260Y127000D01*
X307975Y123317D02*
X425577D01*
X304800Y126492D02*
X307975Y123317D01*
X304800Y126492D02*
Y149860D01*
X254000D02*
Y159820D01*
X113030Y344170D02*
X133350D01*
X190500Y287020D01*
X485140Y261620D02*
X553720D01*
X459740Y287020D02*
X485140Y261620D01*
X306070Y287020D02*
X459740D01*
X190500D02*
X303530D01*
X304800Y149860D02*
Y288290D01*
X306070Y287020D01*
D18*
X206960Y159820D02*
Y181610D01*
Y212090D01*
Y242570D01*
Y159820D02*
X254000D01*
X279400Y129540D02*
Y149860D01*
X271780Y121920D02*
X279400Y129540D01*
X194310Y121920D02*
X271780D01*
X187960Y128270D02*
X194310Y121920D01*
X187960Y128270D02*
Y151130D01*
Y181610D01*
Y212090D01*
Y242570D01*
D19*
X553720Y261620D02*
X665734D01*
X750570Y176784D01*
X845058D01*
D20*
X670560Y478545D02*
Y463550D01*
X663062D01*
X660563Y466049D01*
Y468548D01*
X663062Y471048D01*
X670560D01*
X663062D01*
X660563Y473547D01*
Y476046D01*
X663062Y478545D01*
X670560D01*
X648067D02*
X653066D01*
X655565Y476046D01*
Y466049D01*
X653066Y463550D01*
X648067D01*
X645568Y466049D01*
Y476046D01*
X648067Y478545D01*
X640570D02*
X630573D01*
X635571D01*
Y463550D01*
D21*
X31750Y469900D02*
D03*
Y31750D02*
D03*
X967740D02*
D03*
X34290Y228600D02*
D03*
X435610D02*
D03*
X768350Y469900D02*
D03*
D22*
X469900Y95250D02*
D03*
X444500D02*
D03*
X419100D02*
D03*
X393700D02*
D03*
X368300D02*
D03*
X342900D02*
D03*
X317500D02*
D03*
X292100D02*
D03*
X266700D02*
D03*
X241300D02*
D03*
X215900D02*
D03*
X190500D02*
D03*
X165100D02*
D03*
X139700D02*
D03*
X114300D02*
D03*
D23*
X88900D02*
D03*
D24*
X105410Y430530D02*
D03*
X215900D02*
D03*
D25*
X156210D02*
D03*
X266700D02*
D03*
D26*
X314706Y435610D02*
D03*
X539750D02*
D03*
X971550Y214630D02*
D03*
X839470D02*
D03*
D27*
X363220Y344170D02*
D03*
X288030D02*
D03*
X213106D02*
D03*
X113030D02*
D03*
D28*
X553720Y337820D02*
D03*
Y261620D02*
D03*
D29*
X843280Y38100D02*
D03*
X817880D02*
D03*
X792480D02*
D03*
X538480D02*
D03*
X563880D02*
D03*
X589280D02*
D03*
X614680D02*
D03*
X640080D02*
D03*
X665480D02*
D03*
X690880D02*
D03*
X716280D02*
D03*
X741680D02*
D03*
X767080D02*
D03*
Y114300D02*
D03*
X741680D02*
D03*
X716280D02*
D03*
X690880D02*
D03*
X665480D02*
D03*
X640080D02*
D03*
X614680D02*
D03*
X589280D02*
D03*
X563880D02*
D03*
X538480D02*
D03*
X513080D02*
D03*
X843280D02*
D03*
X817880D02*
D03*
X792480D02*
D03*
X165100Y26670D02*
D03*
X139700Y52070D02*
D03*
X114300Y26670D02*
D03*
D30*
X513080Y38100D02*
D03*
D31*
X73660Y148590D02*
D03*
X48260D02*
D03*
X99060D02*
D03*
X279400Y149860D02*
D03*
X254000D02*
D03*
X304800D02*
D03*
X403860D02*
D03*
X378460D02*
D03*
X429260D02*
D03*
D32*
X760730Y246380D02*
D03*
Y271780D02*
D03*
Y297180D02*
D03*
Y322580D02*
D03*
Y347980D02*
D03*
Y373380D02*
D03*
Y398780D02*
D03*
D33*
Y424180D02*
D03*
D34*
X716280Y146050D02*
D03*
X701280D02*
D03*
D35*
X905550Y289630D02*
D03*
X930550D02*
D03*
X880550D02*
D03*
Y144630D02*
D03*
X930550D02*
D03*
D36*
X918270Y55820D02*
D03*
X463500Y18288D02*
D03*
X690880Y168924D02*
D03*
X845058Y176784D02*
D03*
D37*
X871220Y17780D02*
D03*
D38*
X918270Y41910D02*
D03*
X890270D02*
D03*
D39*
X46228Y115182D02*
X48380Y113030D01*
X46228Y115182D02*
Y130048D01*
D40*
X48260Y132080D02*
Y148590D01*
M02*
