M48
;Layer_Color=9474304
;FILE_FORMAT=4:4
METRIC,LZ
;TYPE=PLATED
T1F00S00C0.4000
T2F00S00C0.5000
T3F00S00C0.7112
T4F00S00C0.8890
T5F00S00C0.9000
T6F00S00C1.0000
T7F00S00C1.0160
T8F00S00C1.1000
T9F00S00C1.5000
T10F00S00C2.0000
T11F00S00C3.2000
%
T01
X004635Y00018288
X0069088Y00168924
X00845058Y00176784
X0091827Y0005582
T02
X0070128Y0014605
X0071628
T03
X0087122Y0001778
X001651Y0002667
X001143
X001397Y0005207
T04
X0051308Y000381
X0053848
X0056388
X0058928
X0061468
X0064008
X0066548
Y001143
X0064008
X0061468
X0058928
X0056388
X0053848
X0051308
X0055372Y0026162
Y0033782
X0069088Y001143
X0071628
X0074168
X0076708
X0079248
X0081788
X0084328
Y000381
X0081788
X0079248
X0076708
X0074168
X0071628
X0069088
T05
X000889Y0009525
X001143
X001397
X001651
X001905
X002159
X002413
X002667
X002921
X003175
X003429
X003683
X003937
X004191
X004445
X004699
X0076073Y0024638
Y0027178
Y0029718
Y0032258
Y0034798
Y0037338
Y0039878
Y0042418
T06
X0088055Y0014463
X0093055
Y0028963
X0090555
X0088055
T07
X0004826Y0014859
X0007366
X0009906
X00254Y0014986
X002794
X003048
X0037846
X0040386
X0042926
T08
X0010541Y0043053
X0015621
X002159
X002667
T09
X00314706Y0043561
X0053975
T10
X0011303Y0034417
X00213106
X0028803
X0036322
X0083947Y0021463
X0097155
T11
X0003175Y0003175
X0003429Y002286
X0043561
X0096774Y0003175
X0076835Y004699
X0003175
M30
