%FSLAX44Y44*%
%MOMM*%
G71*
G01*
G75*
G04 Layer_Color=8388736*
%ADD10R,1.1000X1.4000*%
%ADD11R,1.3000X1.4000*%
%ADD12R,1.4000X5.2000*%
%ADD13R,1.7000X2.0000*%
%ADD14R,1.4000X1.0000*%
%ADD15C,0.5000*%
%ADD16C,0.2000*%
%ADD17C,2.0000*%
%ADD18C,0.6500*%
%ADD19C,0.6500*%
%ADD20C,0.3000*%
%ADD21C,3.7000*%
%ADD22C,1.5000*%
%ADD23R,1.5000X1.5000*%
%ADD24P,1.8401X8X22.5*%
%ADD25C,1.7000*%
%ADD26C,3.0000*%
%ADD27C,4.0000*%
%ADD28C,2.5400*%
%ADD29C,1.5748*%
%ADD30P,1.7046X8X112.5*%
%ADD31O,1.5240X2.5400*%
%ADD32C,1.3508*%
%ADD33R,1.3508X1.3508*%
%ADD34C,1.0000*%
%ADD35C,1.6000*%
%ADD36C,0.8000*%
%ADD37C,1.2700*%
%ADD38R,1.6000X1.6000*%
%ADD39C,0.4000*%
%ADD40C,0.7000*%
%ADD41C,0.2540*%
%ADD42C,0.1524*%
%ADD43C,0.1500*%
%ADD44C,0.2032*%
%ADD45C,0.3048*%
%ADD46R,1.3032X1.6032*%
%ADD47R,1.5032X1.6032*%
%ADD48R,1.6032X5.4032*%
%ADD49R,1.9032X2.2032*%
%ADD50R,1.6032X1.2032*%
%ADD51C,3.9032*%
%ADD52C,1.7032*%
%ADD53R,1.7032X1.7032*%
%ADD54P,2.0600X8X22.5*%
%ADD55C,1.9032*%
%ADD56C,3.2032*%
%ADD57C,4.2032*%
%ADD58C,2.7432*%
%ADD59C,1.7780*%
%ADD60P,1.9245X8X112.5*%
%ADD61O,1.7272X2.7432*%
%ADD62C,1.5540*%
%ADD63R,1.5540X1.5540*%
%ADD64C,1.2032*%
%ADD65C,1.8032*%
%ADD66C,1.0032*%
%ADD67C,1.4732*%
D46*
X523360Y135890D02*
D03*
X538360D02*
D03*
X684650Y398780D02*
D03*
X699650D02*
D03*
X933330Y119380D02*
D03*
X918330D02*
D03*
X660520Y161290D02*
D03*
X675520D02*
D03*
X665360Y137160D02*
D03*
X650360D02*
D03*
X807840Y270510D02*
D03*
X822840D02*
D03*
X807840Y250190D02*
D03*
X822840D02*
D03*
X685680Y16510D02*
D03*
X670680D02*
D03*
D47*
X679500Y361950D02*
D03*
X698500D02*
D03*
X538430Y196850D02*
D03*
X519430D02*
D03*
X519480Y162560D02*
D03*
X538480D02*
D03*
X463500Y34290D02*
D03*
X444500D02*
D03*
X463500Y64770D02*
D03*
X444500D02*
D03*
X914350Y77470D02*
D03*
X895350D02*
D03*
X806400Y158750D02*
D03*
X787400D02*
D03*
X786180Y191770D02*
D03*
X805180D02*
D03*
D48*
X709530Y287020D02*
D03*
X659530D02*
D03*
D49*
X577940Y163830D02*
D03*
X620940D02*
D03*
D50*
X748030Y208230D02*
D03*
X726030Y198730D02*
D03*
X748030Y189230D02*
D03*
D51*
X31750Y469900D02*
D03*
Y31750D02*
D03*
X967740D02*
D03*
X34290Y228600D02*
D03*
X435610D02*
D03*
X768350Y469900D02*
D03*
D52*
X469900Y95250D02*
D03*
X444500D02*
D03*
X419100D02*
D03*
X393700D02*
D03*
X368300D02*
D03*
X342900D02*
D03*
X317500D02*
D03*
X292100D02*
D03*
X266700D02*
D03*
X241300D02*
D03*
X215900D02*
D03*
X190500D02*
D03*
X165100D02*
D03*
X139700D02*
D03*
X114300D02*
D03*
D53*
X88900D02*
D03*
D54*
X105410Y430530D02*
D03*
X215900D02*
D03*
D55*
X156210D02*
D03*
X266700D02*
D03*
D56*
X314706Y435610D02*
D03*
X539750D02*
D03*
X971550Y214630D02*
D03*
X839470D02*
D03*
D57*
X363220Y344170D02*
D03*
X288030D02*
D03*
X213106D02*
D03*
X113030D02*
D03*
D58*
X553720Y337820D02*
D03*
Y261620D02*
D03*
D59*
X843280Y38100D02*
D03*
X817880D02*
D03*
X792480D02*
D03*
X538480D02*
D03*
X563880D02*
D03*
X589280D02*
D03*
X614680D02*
D03*
X640080D02*
D03*
X665480D02*
D03*
X690880D02*
D03*
X716280D02*
D03*
X741680D02*
D03*
X767080D02*
D03*
Y114300D02*
D03*
X741680D02*
D03*
X716280D02*
D03*
X690880D02*
D03*
X665480D02*
D03*
X640080D02*
D03*
X614680D02*
D03*
X589280D02*
D03*
X563880D02*
D03*
X538480D02*
D03*
X513080D02*
D03*
X843280D02*
D03*
X817880D02*
D03*
X792480D02*
D03*
X165100Y26670D02*
D03*
X139700Y52070D02*
D03*
X114300Y26670D02*
D03*
D60*
X513080Y38100D02*
D03*
D61*
X73660Y148590D02*
D03*
X48260D02*
D03*
X99060D02*
D03*
X279400Y149860D02*
D03*
X254000D02*
D03*
X304800D02*
D03*
X403860D02*
D03*
X378460D02*
D03*
X429260D02*
D03*
D62*
X760730Y246380D02*
D03*
Y271780D02*
D03*
Y297180D02*
D03*
Y322580D02*
D03*
Y347980D02*
D03*
Y373380D02*
D03*
Y398780D02*
D03*
D63*
Y424180D02*
D03*
D64*
X716280Y146050D02*
D03*
X701280D02*
D03*
D65*
X905550Y289630D02*
D03*
X930550D02*
D03*
X880550D02*
D03*
Y144630D02*
D03*
X930550D02*
D03*
D66*
X918270Y55820D02*
D03*
X463500Y18288D02*
D03*
X690880Y168924D02*
D03*
X845058Y176784D02*
D03*
D67*
X871220Y17780D02*
D03*
M02*
